<svg width="512" height="512" viewBox="0 0 512 512" fill="none" xmlns="http://www.w3.org/2000/svg">
  <rect width="512" height="512" rx="120" fill="#0B1120"/>
  <defs>
    <linearGradient id="gemini-gradient" x1="100" y1="100" x2="400" y2="400" gradientUnits="userSpaceOnUse">
      <stop offset="0%" stop-color="#60A5FA" />
      <stop offset="50%" stop-color="#A855F7" />
      <stop offset="100%" stop-color="#EC4899" />
    </linearGradient>
    <filter id="glow" x="-20%" y="-20%" width="140%" height="140%">
      <feGaussianBlur stdDeviation="15" result="blur" />
      <feComposite in="SourceGraphic" in2="blur" operator="over" />
    </filter>
  </defs>
  <path d="M256 80C256 80 280 180 380 200C480 220 480 256 480 256C480 256 380 280 360 380C340 480 256 480 256 480C256 480 232 380 132 360C32 340 32 256 32 256C32 256 132 232 152 132C172 32 256 80 256 80Z" 
        fill="url(#gemini-gradient)" filter="url(#glow)" transform="scale(0.7) translate(110, 110)"/>
</svg>